Coordinates
version=1
nRows=14
nColumns=46
inDegrees=yes

Units are S.I. units (second, meters, Newtons, ...)
Angles are in degrees.

endheader
time	pelvis_tilt	pelvis_list	pelvis_rotation	pelvis_tx	pelvis_ty	pelvis_tz	bb_angle	bb_tx	bb_ty	bb_tz	hip_flexion_r	hip_adduction_r	hip_rotation_r	knee_angle_r	knee_angle_r_beta	ankle_angle_r	subtalar_angle_r	mtp_angle_r	crank_angle_r	hip_flexion_l	hip_adduction_l	hip_rotation_l	knee_angle_l	knee_angle_l_beta	ankle_angle_l	subtalar_angle_l	mtp_angle_l	crank_angle_l	lumbar_extension	lumbar_bending	lumbar_rotation	arm_flex_r	arm_add_r	arm_rot_r	elbow_flex_r	pro_sup_r	wrist_flex_r	wrist_dev_r	arm_flex_l	arm_add_l	arm_rot_l	elbow_flex_l	pro_sup_l	wrist_flex_l	wrist_dev_l
      2.50000000	    -17.68272952	      6.25914142	      7.84184222	      0.14861527	      1.06532243	     -0.22512726	      0.00000000	      0.50000000	      0.00000000	      0.25000000	     43.36009892	    -13.73491934	     -0.89495079	     29.28476084	      0.51111550	    -31.36201932	     -6.93701647	      0.00000000	      0.00000000	     81.31190179	      3.06035530	     -0.47647306	    113.63671540	      1.98333483	     10.37456175	     -7.56554522	      0.00000000	      0.00000000	    -51.57664621	     -2.03203695	     -8.97081207	     74.70209278	    -10.41286062	     21.33057493	     52.92894150	     44.96402552	      0.00000000	      0.00000000	     83.60498829	    -10.13814194	     31.33886724	     42.44418206	     43.94750118	      0.00000000	      0.00000000
      2.50500000	    -17.62747496	      6.38044227	      8.30729702	      0.14769860	      1.06500767	     -0.22563818	      0.00000000	      0.50000000	      0.00000000	      0.25000000	     43.17260886	    -14.00893345	     -0.69474635	     29.48273613	      0.51457082	    -31.84802511	     -7.61222132	      0.00000000	      0.00000000	     81.60309791	      3.56194780	     -0.60637470	    113.66761559	      1.98387414	     10.84688045	     -7.89920530	      0.00000000	      0.00000000	    -51.83477475	     -1.92280337	     -9.45031706	     74.38374915	    -10.45973519	     20.53092224	     54.02917434	     44.96564700	      0.00000000	      0.00000000	     83.20377011	    -10.24258664	     30.01914741	     44.20969516	     43.99302421	      0.00000000	      0.00000000
      2.51000000	    -17.73652377	      6.42163058	      8.53987203	      0.14644537	      1.06399852	     -0.22539218	      0.00000000	      0.50000000	      0.00000000	      0.25000000	     43.40692094	    -13.99339326	     -0.21081364	     30.02681688	      0.52406682	    -31.98899536	     -8.18537771	      0.00000000	      0.00000000	     82.12260464	      3.72942653	     -0.67684114	    113.75907274	      1.98547037	     11.49985811	     -8.02466938	      0.00000000	      0.00000000	    -51.71331601	     -1.99768281	     -9.78998562	     74.86524030	    -10.42731504	     21.15387432	     52.93491097	     44.84763310	      0.00000000	      0.00000000	     83.93066289	    -10.50439913	     31.75038800	     43.25240064	     43.95683765	      0.00000000	      0.00000000
      2.51500000	    -17.66536040	      6.44293353	      8.77522193	      0.14529304	      1.06336017	     -0.22508894	      0.00000000	      0.50000000	      0.00000000	      0.25000000	     43.39023108	    -13.91988736	      0.27328955	     30.46564533	      0.53172582	    -32.38014193	     -8.97218049	      0.00000000	      0.00000000	     82.40998792	      3.90305891	     -0.73350732	    113.82194207	      1.98656765	     12.17111606	     -8.28708133	      0.00000000	      0.00000000	    -51.90018445	     -2.02301178	    -10.05506426	     74.98451260	    -10.47764381	     21.00856522	     53.09499515	     44.87496480	      0.00000000	      0.00000000	     84.22860549	    -10.78815893	     32.31178220	     43.63621737	     44.03571423	      0.00000000	      0.00000000
      2.52000000	    -17.62986005	      6.49972919	      9.02885322	      0.14416966	      1.06258402	     -0.22483043	      0.00000000	      0.50000000	      0.00000000	      0.25000000	     43.45637920	    -13.89328094	      0.79317063	     31.00112460	      0.54107170	    -32.72743668	     -9.71971641	      0.00000000	      0.00000000	     82.69693486	      4.12633717	     -0.81743496	    113.86160123	      1.98725983	     12.93696038	     -8.52915521	      0.00000000	      0.00000000	    -52.02389218	     -1.99736900	    -10.41772300	     75.12445610	    -10.32170302	     20.89994340	     53.11749822	     44.79492441	      0.00000000	      0.00000000	     84.39958219	    -11.14693217	     32.53972327	     44.11581756	     44.06661518	      0.00000000	      0.00000000
      2.52500000	    -17.56568242	      6.51764892	      9.26898815	      0.14292540	      1.06181002	     -0.22454910	      0.00000000	      0.50000000	      0.00000000	      0.25000000	     43.47224237	    -13.77711221	      1.39853280	     31.50474645	      0.54986156	    -33.07381266	    -10.51702706	      0.00000000	      0.00000000	     82.95159390	      4.34529522	     -0.87353475	    113.88632812	      1.98769140	     13.71617212	     -8.91261938	      0.00000000	      0.00000000	    -52.19911868	     -2.00304258	    -10.70282614	     75.30217192	    -10.29018544	     20.83871860	     53.11678786	     44.68395795	      0.00000000	      0.00000000	     84.67746123	    -11.35828714	     32.78584319	     44.48915973	     44.02668327	      0.00000000	      0.00000000
      2.53000000	    -17.48477255	      6.53676670	      9.51256567	      0.14168213	      1.06094673	     -0.22423498	      0.00000000	      0.50000000	      0.00000000	      0.25000000	     43.51015855	    -13.65005911	      2.04895414	     32.11073829	      0.56043811	    -33.33956811	    -11.33625167	      0.00000000	      0.00000000	     83.17193565	      4.57075031	     -0.91910302	    113.90499660	      1.98801723	     14.54159703	     -9.16837307	      0.00000000	      0.00000000	    -52.39633265	     -2.02667912	    -10.86643660	     75.41402898	    -10.32947801	     20.60525617	     53.22352700	     44.60112912	      0.00000000	      0.00000000	     84.96524281	    -11.30283250	     32.94610783	     44.73655116	     44.01950213	      0.00000000	      0.00000000
      2.53500000	    -17.42479641	      6.62185268	      9.77570915	      0.14031041	      1.06003502	     -0.22411779	      0.00000000	      0.50000000	      0.00000000	      0.25000000	     43.58483697	    -13.59197061	      2.73562583	     32.75364539	      0.57165895	    -33.58404811	    -12.01314130	      0.00000000	      0.00000000	     83.39789220	      4.89230198	     -1.03512641	    113.87163415	      1.98743494	     15.35556641	     -9.52232798	      0.00000000	      0.00000000	    -52.59148975	     -2.04414399	    -11.19571154	     75.58391753	    -10.42031516	     20.61752106	     53.26594497	     44.59764086	      0.00000000	      0.00000000	     85.26205095	    -11.62884522	     33.37017613	     45.27207564	     44.07664699	      0.00000000	      0.00000000
      2.54000000	    -17.33287513	      6.66732878	     10.08907891	      0.13894073	      1.05922007	     -0.22405166	      0.00000000	      0.50000000	      0.00000000	      0.25000000	     43.59878148	    -13.52637320	      3.35275483	     33.40791265	      0.58307807	    -33.74137199	    -12.72446778	      0.00000000	      0.00000000	     83.57568095	      5.27005142	     -1.09057805	    113.82204161	      1.98656939	     16.24826587	     -9.98163102	      0.00000000	      0.00000000	    -52.81878948	     -1.92978081	    -11.71504558	     76.06595327	    -10.05219311	     20.78642173	     52.70155971	     44.32742199	      0.00000000	      0.00000000	     85.38768612	    -12.35177316	     33.68149534	     46.38059694	     43.85959026	      0.00000000	      0.00000000
      2.54500000	    -17.30023303	      6.65600982	     10.37135922	      0.13746399	      1.05809906	     -0.22399648	      0.00000000	      0.50000000	      0.00000000	      0.25000000	     43.72324020	    -13.37227000	      4.04112067	     34.13928963	      0.59584301	    -33.93772766	    -13.65663780	      0.00000000	      0.00000000	     83.83366122	      5.61556082	     -1.06331548	    113.77509105	      1.98574995	     17.21609374	    -10.12581222	      0.00000000	      0.00000000	    -52.95048773	     -1.86822591	    -11.91569376	     76.33079489	     -9.95650787	     20.53188486	     52.45015617	     44.06382709	      0.00000000	      0.00000000	     85.53769986	    -12.50515294	     33.71822768	     47.12833690	     43.63931276	      0.00000000	      0.00000000
      2.55000000	    -17.16330592	      6.85611130	     10.72595702	      0.13616281	      1.05739337	     -0.22386518	      0.00000000	      0.50000000	      0.00000000	      0.25000000	     43.76213246	    -13.48693240	      4.57099879	     34.98089811	      0.61053185	    -34.02630464	    -14.32367504	      0.00000000	      0.00000000	     83.85852255	      6.07555168	     -1.21462185	    113.62024739	      1.98304741	     18.15639129	    -10.29258035	      0.00000000	      0.00000000	    -53.30620492	     -1.91552317	    -12.24428772	     76.32638495	    -10.27415863	     20.48975621	     53.05400217	     44.05780371	      0.00000000	      0.00000000	     86.04676455	    -12.53905950	     34.30584491	     47.22877932	     43.47650716	      0.00000000	      0.00000000
      2.55500000	    -17.11861373	      6.99067171	     11.04681989	      0.13488840	      1.05649117	     -0.22380700	      0.00000000	      0.50000000	      0.00000000	      0.25000000	     43.82763354	    -13.48208084	      5.20026413	     35.70747108	      0.62321294	    -34.10977450	    -15.15256758	      0.00000000	      0.00000000	     83.98456284	      6.49886926	     -1.30367784	    113.45047105	      1.98008426	     19.09088989	    -10.44713254	      0.00000000	      0.00000000	    -53.55539164	     -1.92176670	    -12.52034868	     76.35823039	    -10.50329808	     20.40422470	     53.61767382	     44.15872653	      0.00000000	      0.00000000	     86.43967136	    -12.75175290	     35.03260614	     47.72751388	     43.45104075	      0.00000000	      0.00000000
      2.56000000	    -17.05980246	      7.02234317	     11.22596243	      0.13364625	      1.05555170	     -0.22319089	      0.00000000	      0.50000000	      0.00000000	      0.25000000	     43.91264144	    -13.25734647	      5.82051575	     36.41186699	      0.63550697	    -34.36807931	    -16.03093399	      0.00000000	      0.00000000	     84.09166862	      6.69985645	     -1.19958353	    113.31511440	      1.97772184	     20.24132653	    -10.24068776	      0.00000000	      0.00000000	    -53.81484590	     -1.96949393	    -12.69606449	     76.43766467	    -10.32422349	     19.68417234	     54.02058557	     43.96576501	      0.00000000	      0.00000000	     86.41750828	    -12.79387190	     34.32694133	     48.81828088	     43.35692600	      0.00000000	      0.00000000
      2.56500000	    -17.08638464	      7.28809403	     11.53183831	      0.13225586	      1.05468219	     -0.22305808	      0.00000000	      0.50000000	      0.00000000	      0.25000000	     44.11783179	    -13.37903207	      6.43002040	     37.21702573	      0.64955964	    -34.45729495	    -16.69098684	      0.00000000	      0.00000000	     84.23003793	      7.14577005	     -1.38372695	    113.02104556	      1.97258937	     21.19663876	    -10.22798577	      0.00000000	      0.00000000	    -53.98451078	     -2.06135428	    -13.08933612	     76.62177068	    -10.41877083	     19.77651997	     54.05287256	     43.94672089	      0.00000000	      0.00000000	     86.93970609	    -13.11105184	     35.49082480	     48.91085626	     43.31282699	      0.00000000	      0.00000000
